<mxfile host="app.diagrams.net" agent="Mozilla/5.0 (Windows NT 10.0; Win64; x64) AppleWebKit/537.36 (KHTML, like Gecko) Chrome/134.0.0.0 Safari/537.36" version="26.2.14">
  <diagram id="C5RBs43oDa-KdzZeNtuy" name="Page-1">
    <mxGraphModel dx="983" dy="516" grid="1" gridSize="10" guides="1" tooltips="1" connect="1" arrows="1" fold="1" page="1" pageScale="1" pageWidth="827" pageHeight="1169" math="0" shadow="0">
      <root>
        <mxCell id="WIyWlLk6GJQsqaUBKTNV-0" />
        <mxCell id="WIyWlLk6GJQsqaUBKTNV-1" parent="WIyWlLk6GJQsqaUBKTNV-0" />
        <mxCell id="WIyWlLk6GJQsqaUBKTNV-2" value="" style="rounded=0;html=1;jettySize=auto;orthogonalLoop=1;fontSize=11;endArrow=block;endFill=0;endSize=8;strokeWidth=1;shadow=0;labelBackgroundColor=none;edgeStyle=orthogonalEdgeStyle;entryX=0.5;entryY=0;entryDx=0;entryDy=0;" parent="WIyWlLk6GJQsqaUBKTNV-1" source="WIyWlLk6GJQsqaUBKTNV-3" target="jJY801MmQMUJmUqFgmxu-2" edge="1">
          <mxGeometry relative="1" as="geometry">
            <mxPoint x="220" y="170" as="targetPoint" />
          </mxGeometry>
        </mxCell>
        <mxCell id="WIyWlLk6GJQsqaUBKTNV-3" value="Game Loads" style="rounded=1;whiteSpace=wrap;html=1;fontSize=12;glass=0;strokeWidth=1;shadow=0;" parent="WIyWlLk6GJQsqaUBKTNV-1" vertex="1">
          <mxGeometry x="160" y="80" width="120" height="40" as="geometry" />
        </mxCell>
        <mxCell id="jJY801MmQMUJmUqFgmxu-2" value="10x10 Matrix" style="shape=parallelogram;html=1;strokeWidth=2;perimeter=parallelogramPerimeter;whiteSpace=wrap;rounded=1;arcSize=12;size=0.23;" vertex="1" parent="WIyWlLk6GJQsqaUBKTNV-1">
          <mxGeometry x="160" y="160" width="120" height="60" as="geometry" />
        </mxCell>
        <mxCell id="jJY801MmQMUJmUqFgmxu-3" value="Show State" style="strokeWidth=2;html=1;shape=mxgraph.flowchart.display;whiteSpace=wrap;" vertex="1" parent="WIyWlLk6GJQsqaUBKTNV-1">
          <mxGeometry x="320" y="160" width="120" height="60" as="geometry" />
        </mxCell>
        <mxCell id="jJY801MmQMUJmUqFgmxu-4" style="edgeStyle=orthogonalEdgeStyle;rounded=0;orthogonalLoop=1;jettySize=auto;html=1;entryX=0;entryY=0.5;entryDx=0;entryDy=0;entryPerimeter=0;" edge="1" parent="WIyWlLk6GJQsqaUBKTNV-1" source="jJY801MmQMUJmUqFgmxu-2" target="jJY801MmQMUJmUqFgmxu-3">
          <mxGeometry relative="1" as="geometry" />
        </mxCell>
        <mxCell id="jJY801MmQMUJmUqFgmxu-5" value="Exit loop, exit program" style="strokeWidth=2;html=1;shape=mxgraph.flowchart.loop_limit;whiteSpace=wrap;" vertex="1" parent="WIyWlLk6GJQsqaUBKTNV-1">
          <mxGeometry x="320" y="420" width="120" height="60" as="geometry" />
        </mxCell>
        <mxCell id="jJY801MmQMUJmUqFgmxu-14" style="edgeStyle=orthogonalEdgeStyle;rounded=0;orthogonalLoop=1;jettySize=auto;html=1;entryX=0;entryY=0.5;entryDx=0;entryDy=0;entryPerimeter=0;" edge="1" parent="WIyWlLk6GJQsqaUBKTNV-1" source="jJY801MmQMUJmUqFgmxu-8" target="jJY801MmQMUJmUqFgmxu-19">
          <mxGeometry relative="1" as="geometry">
            <mxPoint x="510" y="300" as="targetPoint" />
          </mxGeometry>
        </mxCell>
        <mxCell id="jJY801MmQMUJmUqFgmxu-8" value="User wants to continue?" style="strokeWidth=2;html=1;shape=mxgraph.flowchart.decision;whiteSpace=wrap;" vertex="1" parent="WIyWlLk6GJQsqaUBKTNV-1">
          <mxGeometry x="330" y="250" width="100" height="100" as="geometry" />
        </mxCell>
        <mxCell id="jJY801MmQMUJmUqFgmxu-9" style="edgeStyle=orthogonalEdgeStyle;rounded=0;orthogonalLoop=1;jettySize=auto;html=1;entryX=0.5;entryY=0;entryDx=0;entryDy=0;entryPerimeter=0;" edge="1" parent="WIyWlLk6GJQsqaUBKTNV-1" source="jJY801MmQMUJmUqFgmxu-3" target="jJY801MmQMUJmUqFgmxu-8">
          <mxGeometry relative="1" as="geometry" />
        </mxCell>
        <mxCell id="jJY801MmQMUJmUqFgmxu-10" style="edgeStyle=orthogonalEdgeStyle;rounded=0;orthogonalLoop=1;jettySize=auto;html=1;entryX=0.5;entryY=0;entryDx=0;entryDy=0;entryPerimeter=0;" edge="1" parent="WIyWlLk6GJQsqaUBKTNV-1" source="jJY801MmQMUJmUqFgmxu-8" target="jJY801MmQMUJmUqFgmxu-5">
          <mxGeometry relative="1" as="geometry" />
        </mxCell>
        <mxCell id="jJY801MmQMUJmUqFgmxu-12" value="No" style="text;html=1;align=center;verticalAlign=middle;resizable=0;points=[];autosize=1;strokeColor=none;fillColor=none;" vertex="1" parent="WIyWlLk6GJQsqaUBKTNV-1">
          <mxGeometry x="373" y="370" width="40" height="30" as="geometry" />
        </mxCell>
        <mxCell id="jJY801MmQMUJmUqFgmxu-18" value="Yes" style="text;html=1;align=center;verticalAlign=middle;resizable=0;points=[];autosize=1;strokeColor=none;fillColor=none;" vertex="1" parent="WIyWlLk6GJQsqaUBKTNV-1">
          <mxGeometry x="440" y="270" width="40" height="30" as="geometry" />
        </mxCell>
        <mxCell id="jJY801MmQMUJmUqFgmxu-37" style="edgeStyle=orthogonalEdgeStyle;rounded=0;orthogonalLoop=1;jettySize=auto;html=1;entryX=0.5;entryY=1;entryDx=0;entryDy=0;entryPerimeter=0;" edge="1" parent="WIyWlLk6GJQsqaUBKTNV-1" source="jJY801MmQMUJmUqFgmxu-19" target="jJY801MmQMUJmUqFgmxu-38">
          <mxGeometry relative="1" as="geometry">
            <mxPoint x="540" y="200" as="targetPoint" />
          </mxGeometry>
        </mxCell>
        <mxCell id="jJY801MmQMUJmUqFgmxu-19" value="Is cell&lt;br&gt;populated?" style="strokeWidth=2;html=1;shape=mxgraph.flowchart.decision;whiteSpace=wrap;" vertex="1" parent="WIyWlLk6GJQsqaUBKTNV-1">
          <mxGeometry x="490" y="250" width="100" height="100" as="geometry" />
        </mxCell>
        <mxCell id="jJY801MmQMUJmUqFgmxu-24" style="edgeStyle=orthogonalEdgeStyle;rounded=0;orthogonalLoop=1;jettySize=auto;html=1;entryX=0;entryY=0.5;entryDx=0;entryDy=0;" edge="1" parent="WIyWlLk6GJQsqaUBKTNV-1" source="jJY801MmQMUJmUqFgmxu-20" target="jJY801MmQMUJmUqFgmxu-23">
          <mxGeometry relative="1" as="geometry" />
        </mxCell>
        <mxCell id="jJY801MmQMUJmUqFgmxu-28" style="edgeStyle=orthogonalEdgeStyle;rounded=0;orthogonalLoop=1;jettySize=auto;html=1;entryX=0.5;entryY=0;entryDx=0;entryDy=0;entryPerimeter=0;" edge="1" parent="WIyWlLk6GJQsqaUBKTNV-1" source="jJY801MmQMUJmUqFgmxu-20" target="jJY801MmQMUJmUqFgmxu-32">
          <mxGeometry relative="1" as="geometry" />
        </mxCell>
        <mxCell id="jJY801MmQMUJmUqFgmxu-20" value="Does cell&lt;br&gt;&amp;nbsp;have 3&lt;br&gt;&amp;nbsp;neighbors?" style="strokeWidth=2;html=1;shape=mxgraph.flowchart.decision;whiteSpace=wrap;" vertex="1" parent="WIyWlLk6GJQsqaUBKTNV-1">
          <mxGeometry x="630" y="250" width="100" height="100" as="geometry" />
        </mxCell>
        <mxCell id="jJY801MmQMUJmUqFgmxu-21" style="edgeStyle=orthogonalEdgeStyle;rounded=0;orthogonalLoop=1;jettySize=auto;html=1;entryX=0;entryY=0.5;entryDx=0;entryDy=0;entryPerimeter=0;" edge="1" parent="WIyWlLk6GJQsqaUBKTNV-1" source="jJY801MmQMUJmUqFgmxu-19" target="jJY801MmQMUJmUqFgmxu-20">
          <mxGeometry relative="1" as="geometry" />
        </mxCell>
        <mxCell id="jJY801MmQMUJmUqFgmxu-22" value="No" style="text;html=1;align=center;verticalAlign=middle;resizable=0;points=[];autosize=1;strokeColor=none;fillColor=none;" vertex="1" parent="WIyWlLk6GJQsqaUBKTNV-1">
          <mxGeometry x="590" y="270" width="40" height="30" as="geometry" />
        </mxCell>
        <mxCell id="jJY801MmQMUJmUqFgmxu-31" style="edgeStyle=orthogonalEdgeStyle;rounded=0;orthogonalLoop=1;jettySize=auto;html=1;entryX=1;entryY=0.5;entryDx=0;entryDy=0;entryPerimeter=0;" edge="1" parent="WIyWlLk6GJQsqaUBKTNV-1" source="jJY801MmQMUJmUqFgmxu-23" target="jJY801MmQMUJmUqFgmxu-32">
          <mxGeometry relative="1" as="geometry">
            <Array as="points">
              <mxPoint x="850" y="430" />
            </Array>
          </mxGeometry>
        </mxCell>
        <mxCell id="jJY801MmQMUJmUqFgmxu-23" value="Populate" style="rounded=1;whiteSpace=wrap;html=1;absoluteArcSize=1;arcSize=14;strokeWidth=2;" vertex="1" parent="WIyWlLk6GJQsqaUBKTNV-1">
          <mxGeometry x="800" y="280" width="100" height="40" as="geometry" />
        </mxCell>
        <mxCell id="jJY801MmQMUJmUqFgmxu-25" value="Yes" style="text;html=1;align=center;verticalAlign=middle;resizable=0;points=[];autosize=1;strokeColor=none;fillColor=none;" vertex="1" parent="WIyWlLk6GJQsqaUBKTNV-1">
          <mxGeometry x="740" y="270" width="40" height="30" as="geometry" />
        </mxCell>
        <mxCell id="jJY801MmQMUJmUqFgmxu-27" value="Go to next cell" style="rounded=1;whiteSpace=wrap;html=1;absoluteArcSize=1;arcSize=14;strokeWidth=2;" vertex="1" parent="WIyWlLk6GJQsqaUBKTNV-1">
          <mxGeometry x="490" y="410" width="100" height="40" as="geometry" />
        </mxCell>
        <mxCell id="jJY801MmQMUJmUqFgmxu-29" value="No" style="text;html=1;align=center;verticalAlign=middle;resizable=0;points=[];autosize=1;strokeColor=none;fillColor=none;" vertex="1" parent="WIyWlLk6GJQsqaUBKTNV-1">
          <mxGeometry x="680" y="360" width="40" height="30" as="geometry" />
        </mxCell>
        <mxCell id="jJY801MmQMUJmUqFgmxu-30" style="edgeStyle=orthogonalEdgeStyle;rounded=0;orthogonalLoop=1;jettySize=auto;html=1;entryX=0.5;entryY=1;entryDx=0;entryDy=0;entryPerimeter=0;" edge="1" parent="WIyWlLk6GJQsqaUBKTNV-1" source="jJY801MmQMUJmUqFgmxu-27" target="jJY801MmQMUJmUqFgmxu-19">
          <mxGeometry relative="1" as="geometry" />
        </mxCell>
        <mxCell id="jJY801MmQMUJmUqFgmxu-33" style="edgeStyle=orthogonalEdgeStyle;rounded=0;orthogonalLoop=1;jettySize=auto;html=1;entryX=1;entryY=0.5;entryDx=0;entryDy=0;" edge="1" parent="WIyWlLk6GJQsqaUBKTNV-1" source="jJY801MmQMUJmUqFgmxu-32" target="jJY801MmQMUJmUqFgmxu-27">
          <mxGeometry relative="1" as="geometry" />
        </mxCell>
        <mxCell id="jJY801MmQMUJmUqFgmxu-35" style="edgeStyle=orthogonalEdgeStyle;rounded=0;orthogonalLoop=1;jettySize=auto;html=1;" edge="1" parent="WIyWlLk6GJQsqaUBKTNV-1" source="jJY801MmQMUJmUqFgmxu-32" target="jJY801MmQMUJmUqFgmxu-3">
          <mxGeometry relative="1" as="geometry">
            <Array as="points">
              <mxPoint x="680" y="520" />
              <mxPoint x="290" y="520" />
              <mxPoint x="290" y="190" />
            </Array>
          </mxGeometry>
        </mxCell>
        <mxCell id="jJY801MmQMUJmUqFgmxu-32" value="Are there remaining&lt;br&gt;cells?" style="strokeWidth=2;html=1;shape=mxgraph.flowchart.decision;whiteSpace=wrap;" vertex="1" parent="WIyWlLk6GJQsqaUBKTNV-1">
          <mxGeometry x="630" y="380" width="100" height="100" as="geometry" />
        </mxCell>
        <mxCell id="jJY801MmQMUJmUqFgmxu-34" value="Yes" style="text;html=1;align=center;verticalAlign=middle;resizable=0;points=[];autosize=1;strokeColor=none;fillColor=none;" vertex="1" parent="WIyWlLk6GJQsqaUBKTNV-1">
          <mxGeometry x="590" y="400" width="40" height="30" as="geometry" />
        </mxCell>
        <mxCell id="jJY801MmQMUJmUqFgmxu-36" value="No" style="text;html=1;align=center;verticalAlign=middle;resizable=0;points=[];autosize=1;strokeColor=none;fillColor=none;" vertex="1" parent="WIyWlLk6GJQsqaUBKTNV-1">
          <mxGeometry x="680" y="480" width="40" height="30" as="geometry" />
        </mxCell>
        <mxCell id="jJY801MmQMUJmUqFgmxu-41" style="edgeStyle=orthogonalEdgeStyle;rounded=0;orthogonalLoop=1;jettySize=auto;html=1;entryX=0;entryY=0.5;entryDx=0;entryDy=0;" edge="1" parent="WIyWlLk6GJQsqaUBKTNV-1" source="jJY801MmQMUJmUqFgmxu-38" target="jJY801MmQMUJmUqFgmxu-42">
          <mxGeometry relative="1" as="geometry">
            <mxPoint x="670" y="150" as="targetPoint" />
          </mxGeometry>
        </mxCell>
        <mxCell id="jJY801MmQMUJmUqFgmxu-45" style="edgeStyle=orthogonalEdgeStyle;rounded=0;orthogonalLoop=1;jettySize=auto;html=1;entryX=0;entryY=0.5;entryDx=0;entryDy=0;" edge="1" parent="WIyWlLk6GJQsqaUBKTNV-1" source="jJY801MmQMUJmUqFgmxu-38" target="jJY801MmQMUJmUqFgmxu-44">
          <mxGeometry relative="1" as="geometry">
            <Array as="points">
              <mxPoint x="540" y="80" />
            </Array>
          </mxGeometry>
        </mxCell>
        <mxCell id="jJY801MmQMUJmUqFgmxu-38" value="Does cell&lt;br&gt;have 2 or 3 neighbors?" style="strokeWidth=2;html=1;shape=mxgraph.flowchart.decision;whiteSpace=wrap;" vertex="1" parent="WIyWlLk6GJQsqaUBKTNV-1">
          <mxGeometry x="490" y="100" width="100" height="100" as="geometry" />
        </mxCell>
        <mxCell id="jJY801MmQMUJmUqFgmxu-39" value="Yes" style="text;html=1;align=center;verticalAlign=middle;resizable=0;points=[];autosize=1;strokeColor=none;fillColor=none;" vertex="1" parent="WIyWlLk6GJQsqaUBKTNV-1">
          <mxGeometry x="500" y="210" width="40" height="30" as="geometry" />
        </mxCell>
        <mxCell id="jJY801MmQMUJmUqFgmxu-42" value="Cell Survives" style="rounded=1;whiteSpace=wrap;html=1;absoluteArcSize=1;arcSize=14;strokeWidth=2;" vertex="1" parent="WIyWlLk6GJQsqaUBKTNV-1">
          <mxGeometry x="680" y="130" width="100" height="40" as="geometry" />
        </mxCell>
        <mxCell id="jJY801MmQMUJmUqFgmxu-43" value="Yes" style="text;html=1;align=center;verticalAlign=middle;resizable=0;points=[];autosize=1;strokeColor=none;fillColor=none;" vertex="1" parent="WIyWlLk6GJQsqaUBKTNV-1">
          <mxGeometry x="610" y="120" width="40" height="30" as="geometry" />
        </mxCell>
        <mxCell id="jJY801MmQMUJmUqFgmxu-44" value="Cell Dies" style="rounded=1;whiteSpace=wrap;html=1;absoluteArcSize=1;arcSize=14;strokeWidth=2;" vertex="1" parent="WIyWlLk6GJQsqaUBKTNV-1">
          <mxGeometry x="680" y="60" width="100" height="40" as="geometry" />
        </mxCell>
        <mxCell id="jJY801MmQMUJmUqFgmxu-46" value="No" style="text;html=1;align=center;verticalAlign=middle;resizable=0;points=[];autosize=1;strokeColor=none;fillColor=none;" vertex="1" parent="WIyWlLk6GJQsqaUBKTNV-1">
          <mxGeometry x="610" y="50" width="40" height="30" as="geometry" />
        </mxCell>
        <mxCell id="jJY801MmQMUJmUqFgmxu-47" style="edgeStyle=orthogonalEdgeStyle;rounded=0;orthogonalLoop=1;jettySize=auto;html=1;entryX=1;entryY=0.5;entryDx=0;entryDy=0;entryPerimeter=0;" edge="1" parent="WIyWlLk6GJQsqaUBKTNV-1" source="jJY801MmQMUJmUqFgmxu-42" target="jJY801MmQMUJmUqFgmxu-32">
          <mxGeometry relative="1" as="geometry">
            <Array as="points">
              <mxPoint x="940" y="150" />
              <mxPoint x="940" y="430" />
            </Array>
          </mxGeometry>
        </mxCell>
        <mxCell id="jJY801MmQMUJmUqFgmxu-48" style="edgeStyle=orthogonalEdgeStyle;rounded=0;orthogonalLoop=1;jettySize=auto;html=1;entryX=1;entryY=0.5;entryDx=0;entryDy=0;entryPerimeter=0;" edge="1" parent="WIyWlLk6GJQsqaUBKTNV-1" source="jJY801MmQMUJmUqFgmxu-44" target="jJY801MmQMUJmUqFgmxu-32">
          <mxGeometry relative="1" as="geometry">
            <Array as="points">
              <mxPoint x="940" y="80" />
              <mxPoint x="940" y="430" />
            </Array>
          </mxGeometry>
        </mxCell>
      </root>
    </mxGraphModel>
  </diagram>
</mxfile>
